<svg width="90" height="93" viewBox="0 0 90 93" fill="none" xmlns="http://www.w3.org/2000/svg"><path d="M62.531 26.094c0 .739-.047 1.47-.133 2.19H27.949a18.324 18.324 0 0 1-.133-2.19c0-9.58 7.772-17.344 17.36-17.344 9.587 0 17.359 7.765 17.359 17.344h-.004Z" fill="#1E1E1E"/><path d="M73.145 28.287h-5.393c0-1.924-.473-5.2-1.53-8.195-3.252-9.207-11.121-14.704-21.05-14.704-4.222 0-14.572 1.157-19.452 11.89-1.906 4.187-2.79 7.682-2.79 11.01h-5.393c0-5.412 1.87-10.147 3.276-13.24 2.422-5.32 6.175-9.336 11.164-11.932C36.916.54 41.877 0 45.17 0c5.635 0 10.965 1.517 15.41 4.387 4.927 3.182 8.637 7.991 10.726 13.91 1.116 3.164 1.84 7.085 1.84 9.99Zm-15.168 4.379v8.922c0 6.975-5.659 12.629-12.64 12.629-6.981 0-12.64-5.654-12.64-12.629v-8.922h25.28Zm-36.314-.338h5.98v9.767h-5.98a4.804 4.804 0 0 1-4.806-4.801v-.165a4.804 4.804 0 0 1 4.806-4.8Zm47.017 9.766h-5.979v-9.767h5.98a4.804 4.804 0 0 1 4.805 4.801v.165a4.804 4.804 0 0 1-4.805 4.8ZM11.128 68.697l2.024 20.092S.332 89.63.007 81.157c-.325-8.472 11.121-12.46 11.121-12.46Zm67.742 0L76.849 88.79s12.82.84 13.144-7.632c.337-8.754-11.121-12.46-11.121-12.46ZM13.49 57.582l3.37 34.687h56.288l3.37-34.687H13.49Zm31.514 23.74a6.4 6.4 0 0 1-6.402-6.396 6.402 6.402 0 0 1 6.402-6.397 6.402 6.402 0 0 1 6.402 6.397 6.402 6.402 0 0 1-6.402 6.396Z" fill="#1E1E1E"/></svg>