<svg width="778" height="681" viewBox="0 0 778 681" fill="none" xmlns="http://www.w3.org/2000/svg"><path fill-rule="evenodd" clip-rule="evenodd" d="m419.19 17.163 352.962 611.155c6.716 11.193 6.716 23.879 0 35.073-6.716 11.193-17.163 17.163-30.595 17.163H35.632c-12.686 0-23.879-6.716-30.595-17.163-6.716-11.194-6.716-23.88 0-35.073L357.999 17.163C364.715 5.97 375.163 0 388.595 0c12.685 0 23.879 5.97 30.595 17.163Z" fill="#000"/><path fill-rule="evenodd" clip-rule="evenodd" d="M388.593 98.502 90.851 614.141h595.484L388.593 98.502Z" fill="#FFED00"/><path fill-rule="evenodd" clip-rule="evenodd" d="M395.313 584.288H338.6l65.668-147.752-88.801 47.758 49.251-184.316-23.133 12.686 47.758-70.145 12.686 82.83-15.671-21.64-17.163 126.857 82.085-42.534-55.967 196.256Z" fill="#000"/></svg>