<svg width="36" height="36" viewBox="0 0 36 36" fill="none" xmlns="http://www.w3.org/2000/svg"><path d="M22.151 19.719C24.701 18.372 28.923 18.193 36 18c-7.077-.194-11.298-.372-13.849-1.72.85-2.756 3.71-5.867 8.577-11.008-5.141 4.867-8.252 7.726-11.008 8.577C18.372 11.3 18.194 7.077 18 0c-.194 7.077-.372 11.299-1.72 13.85-2.756-.851-5.867-3.71-11.008-8.578C10.14 10.413 13 13.524 13.85 16.28 11.3 17.628 7.077 17.807 0 18c7.077.194 11.299.372 13.85 1.72-.851 2.756-3.71 5.867-8.578 11.008C10.413 25.86 13.524 23 16.281 22.15 17.628 24.7 17.807 28.922 18 36c.194-7.078.372-11.3 1.72-13.85 2.756.851 5.867 3.71 11.008 8.578-4.868-5.141-7.726-8.253-8.577-11.01Z" fill="#252525"/></svg>