<svg width="36" height="36" viewBox="0 0 36 36" fill="none" xmlns="http://www.w3.org/2000/svg"><path d="m21.918 19.277-.367.193.122.396c.412 1.335 1.254 2.716 2.484 4.29-1.574-1.23-2.955-2.071-4.29-2.483l-.396-.123-.194.367c-.652 1.235-1.033 2.807-1.277 4.789-.244-1.982-.625-3.554-1.277-4.79l-.194-.366-.396.122c-1.334.412-2.715 1.255-4.289 2.484 1.23-1.574 2.071-2.955 2.483-4.29l.122-.395-.366-.194c-1.235-.652-2.807-1.033-4.789-1.277 1.982-.244 3.554-.625 4.79-1.277l.366-.194-.123-.396c-.412-1.334-1.254-2.715-2.483-4.289 1.574 1.23 2.955 2.071 4.29 2.483l.395.122.194-.366c.653-1.235 1.034-2.807 1.277-4.79.244 1.983.625 3.555 1.277 4.79l.194.366.396-.122c1.335-.412 2.716-1.254 4.29-2.483-1.23 1.573-2.072 2.954-2.484 4.289l-.122.396.367.194c1.235.652 2.807 1.033 4.789 1.277-1.982.243-3.554.624-4.79 1.277Z" fill="#F0F0F0" stroke="#000"/></svg>